<mxfile host="app.diagrams.net" modified="2024-05-03T18:56:30.601Z" agent="Mozilla/5.0 (Windows NT 10.0; Win64; x64) AppleWebKit/537.36 (KHTML, like Gecko) Chrome/124.0.0.0 Safari/537.36" etag="gsdZ6mTL9j8nV7dsl9pn" version="24.3.1" type="gitlab">
  <diagram name="Page-1" id="PW5pZhOQbbt-pAzsFsGZ">
    <mxGraphModel dx="1050" dy="557" grid="1" gridSize="10" guides="1" tooltips="1" connect="1" arrows="1" fold="1" page="1" pageScale="1" pageWidth="850" pageHeight="1100" math="0" shadow="0">
      <root>
        <mxCell id="0" />
        <mxCell id="1" parent="0" />
        <mxCell id="0B0eagUAXpEbYrLWP_e4-1" value="User&lt;div&gt;&lt;br&gt;&lt;/div&gt;" style="shape=umlActor;verticalLabelPosition=bottom;verticalAlign=top;html=1;" parent="1" vertex="1">
          <mxGeometry x="190" y="290" width="30" height="60" as="geometry" />
        </mxCell>
        <mxCell id="0B0eagUAXpEbYrLWP_e4-2" value="" style="rounded=0;whiteSpace=wrap;html=1;direction=south;" parent="1" vertex="1">
          <mxGeometry x="320" y="90" width="640" height="910" as="geometry" />
        </mxCell>
        <mxCell id="0B0eagUAXpEbYrLWP_e4-3" value="pingoway&lt;div&gt;&lt;br&gt;&lt;/div&gt;" style="text;html=1;align=center;verticalAlign=middle;resizable=0;points=[];autosize=1;strokeColor=none;fillColor=none;" parent="1" vertex="1">
          <mxGeometry x="595" y="50" width="70" height="40" as="geometry" />
        </mxCell>
        <mxCell id="0B0eagUAXpEbYrLWP_e4-4" style="rounded=0;orthogonalLoop=1;jettySize=auto;html=1;endArrow=none;endFill=0;" parent="1" source="0B0eagUAXpEbYrLWP_e4-51" target="0B0eagUAXpEbYrLWP_e4-18" edge="1">
          <mxGeometry relative="1" as="geometry" />
        </mxCell>
        <mxCell id="0B0eagUAXpEbYrLWP_e4-5" style="rounded=0;orthogonalLoop=1;jettySize=auto;html=1;entryX=1;entryY=0.5;entryDx=0;entryDy=0;endArrow=none;endFill=0;" parent="1" source="0B0eagUAXpEbYrLWP_e4-51" target="0B0eagUAXpEbYrLWP_e4-19" edge="1">
          <mxGeometry relative="1" as="geometry" />
        </mxCell>
        <mxCell id="0B0eagUAXpEbYrLWP_e4-6" style="rounded=0;orthogonalLoop=1;jettySize=auto;html=1;entryX=1;entryY=0.5;entryDx=0;entryDy=0;endArrow=none;endFill=0;" parent="1" source="0B0eagUAXpEbYrLWP_e4-51" target="0B0eagUAXpEbYrLWP_e4-20" edge="1">
          <mxGeometry relative="1" as="geometry" />
        </mxCell>
        <mxCell id="0B0eagUAXpEbYrLWP_e4-7" style="rounded=0;orthogonalLoop=1;jettySize=auto;html=1;entryX=0.5;entryY=1;entryDx=0;entryDy=0;endArrow=none;endFill=0;" parent="1" source="0B0eagUAXpEbYrLWP_e4-51" target="0B0eagUAXpEbYrLWP_e4-31" edge="1">
          <mxGeometry relative="1" as="geometry" />
        </mxCell>
        <mxCell id="0B0eagUAXpEbYrLWP_e4-8" style="rounded=0;orthogonalLoop=1;jettySize=auto;html=1;entryX=1;entryY=0.5;entryDx=0;entryDy=0;endArrow=none;endFill=0;" parent="1" source="0B0eagUAXpEbYrLWP_e4-9" target="0B0eagUAXpEbYrLWP_e4-55" edge="1">
          <mxGeometry relative="1" as="geometry" />
        </mxCell>
        <mxCell id="0B0eagUAXpEbYrLWP_e4-9" value="Admin" style="shape=umlActor;verticalLabelPosition=bottom;verticalAlign=top;html=1;" parent="1" vertex="1">
          <mxGeometry x="1030" y="270" width="30" height="60" as="geometry" />
        </mxCell>
        <mxCell id="0B0eagUAXpEbYrLWP_e4-10" value="" style="edgeStyle=orthogonalEdgeStyle;rounded=0;orthogonalLoop=1;jettySize=auto;html=1;endArrow=none;endFill=0;startArrow=classic;startFill=1;dashed=1;dashPattern=8 8;" parent="1" source="0B0eagUAXpEbYrLWP_e4-16" target="0B0eagUAXpEbYrLWP_e4-18" edge="1">
          <mxGeometry relative="1" as="geometry">
            <Array as="points">
              <mxPoint x="355" y="280" />
              <mxPoint x="430" y="280" />
              <mxPoint x="430" y="240" />
            </Array>
          </mxGeometry>
        </mxCell>
        <mxCell id="0B0eagUAXpEbYrLWP_e4-11" value="&amp;lt;&amp;lt;extend&amp;gt;&amp;gt;" style="edgeLabel;html=1;align=center;verticalAlign=middle;resizable=0;points=[];" parent="0B0eagUAXpEbYrLWP_e4-10" vertex="1" connectable="0">
          <mxGeometry x="-0.1199" relative="1" as="geometry">
            <mxPoint as="offset" />
          </mxGeometry>
        </mxCell>
        <mxCell id="0B0eagUAXpEbYrLWP_e4-12" value="" style="edgeStyle=orthogonalEdgeStyle;rounded=0;orthogonalLoop=1;jettySize=auto;html=1;dashed=1;dashPattern=8 8;endArrow=none;endFill=0;startArrow=classic;startFill=1;" parent="1" source="0B0eagUAXpEbYrLWP_e4-16" target="0B0eagUAXpEbYrLWP_e4-19" edge="1">
          <mxGeometry relative="1" as="geometry" />
        </mxCell>
        <mxCell id="0B0eagUAXpEbYrLWP_e4-13" value="&amp;lt;&amp;lt;extend&amp;gt;&amp;gt;" style="edgeLabel;html=1;align=center;verticalAlign=middle;resizable=0;points=[];" parent="0B0eagUAXpEbYrLWP_e4-12" vertex="1" connectable="0">
          <mxGeometry x="-0.0667" y="-2" relative="1" as="geometry">
            <mxPoint as="offset" />
          </mxGeometry>
        </mxCell>
        <mxCell id="0B0eagUAXpEbYrLWP_e4-14" value="" style="edgeStyle=orthogonalEdgeStyle;rounded=0;orthogonalLoop=1;jettySize=auto;html=1;endArrow=none;endFill=0;startArrow=classic;startFill=1;dashed=1;dashPattern=8 8;" parent="1" source="0B0eagUAXpEbYrLWP_e4-16" target="0B0eagUAXpEbYrLWP_e4-20" edge="1">
          <mxGeometry relative="1" as="geometry">
            <Array as="points">
              <mxPoint x="355" y="370" />
              <mxPoint x="415" y="370" />
              <mxPoint x="415" y="390" />
            </Array>
          </mxGeometry>
        </mxCell>
        <mxCell id="0B0eagUAXpEbYrLWP_e4-15" value="&amp;lt;&amp;lt;extend&amp;gt;&amp;gt;" style="edgeLabel;html=1;align=center;verticalAlign=middle;resizable=0;points=[];" parent="0B0eagUAXpEbYrLWP_e4-14" vertex="1" connectable="0">
          <mxGeometry x="-0.0503" y="2" relative="1" as="geometry">
            <mxPoint as="offset" />
          </mxGeometry>
        </mxCell>
        <mxCell id="0B0eagUAXpEbYrLWP_e4-16" value="browse services" style="ellipse;whiteSpace=wrap;html=1;" parent="1" vertex="1">
          <mxGeometry x="320" y="300" width="70" height="40" as="geometry" />
        </mxCell>
        <mxCell id="0B0eagUAXpEbYrLWP_e4-17" value="" style="edgeStyle=orthogonalEdgeStyle;rounded=0;orthogonalLoop=1;jettySize=auto;html=1;endArrow=none;endFill=0;startArrow=classic;startFill=1;dashed=1;dashPattern=12 12;" parent="1" source="0B0eagUAXpEbYrLWP_e4-18" target="0B0eagUAXpEbYrLWP_e4-25" edge="1">
          <mxGeometry relative="1" as="geometry">
            <Array as="points">
              <mxPoint x="515" y="200" />
              <mxPoint x="600" y="200" />
            </Array>
          </mxGeometry>
        </mxCell>
        <mxCell id="0B0eagUAXpEbYrLWP_e4-18" value="activites" style="ellipse;whiteSpace=wrap;html=1;" parent="1" vertex="1">
          <mxGeometry x="480" y="220" width="70" height="40" as="geometry" />
        </mxCell>
        <mxCell id="0B0eagUAXpEbYrLWP_e4-19" value="properties" style="ellipse;whiteSpace=wrap;html=1;" parent="1" vertex="1">
          <mxGeometry x="480" y="300" width="70" height="40" as="geometry" />
        </mxCell>
        <mxCell id="0B0eagUAXpEbYrLWP_e4-20" value="car rental" style="ellipse;whiteSpace=wrap;html=1;" parent="1" vertex="1">
          <mxGeometry x="480" y="370" width="70" height="40" as="geometry" />
        </mxCell>
        <mxCell id="0B0eagUAXpEbYrLWP_e4-21" style="rounded=0;orthogonalLoop=1;jettySize=auto;html=1;entryX=0;entryY=0.5;entryDx=0;entryDy=0;endArrow=none;endFill=0;" parent="1" source="0B0eagUAXpEbYrLWP_e4-1" target="0B0eagUAXpEbYrLWP_e4-16" edge="1">
          <mxGeometry relative="1" as="geometry">
            <mxPoint x="250" y="250" as="sourcePoint" />
            <mxPoint x="355" y="280" as="targetPoint" />
          </mxGeometry>
        </mxCell>
        <mxCell id="0B0eagUAXpEbYrLWP_e4-22" value="search" style="ellipse;whiteSpace=wrap;html=1;" parent="1" vertex="1">
          <mxGeometry x="480" y="420" width="70" height="40" as="geometry" />
        </mxCell>
        <mxCell id="0B0eagUAXpEbYrLWP_e4-23" value="" style="edgeStyle=orthogonalEdgeStyle;rounded=0;orthogonalLoop=1;jettySize=auto;html=1;endArrow=none;endFill=0;startArrow=classic;startFill=1;dashed=1;strokeColor=#6F0000;dashPattern=12 12;fillColor=#a20025;" parent="1" source="0B0eagUAXpEbYrLWP_e4-16" target="0B0eagUAXpEbYrLWP_e4-22" edge="1">
          <mxGeometry relative="1" as="geometry">
            <Array as="points">
              <mxPoint x="355" y="440" />
            </Array>
          </mxGeometry>
        </mxCell>
        <mxCell id="0B0eagUAXpEbYrLWP_e4-24" value="&amp;lt;&amp;lt;extend&amp;gt;&amp;gt;" style="edgeLabel;html=1;align=center;verticalAlign=middle;resizable=0;points=[];" parent="0B0eagUAXpEbYrLWP_e4-23" vertex="1" connectable="0">
          <mxGeometry x="0.2251" y="3" relative="1" as="geometry">
            <mxPoint x="32" y="3" as="offset" />
          </mxGeometry>
        </mxCell>
        <mxCell id="0B0eagUAXpEbYrLWP_e4-25" value="sites&lt;div&gt;&lt;br&gt;&lt;/div&gt;" style="ellipse;whiteSpace=wrap;html=1;" parent="1" vertex="1">
          <mxGeometry x="570" y="140" width="70" height="40" as="geometry" />
        </mxCell>
        <mxCell id="0B0eagUAXpEbYrLWP_e4-26" value="" style="edgeStyle=orthogonalEdgeStyle;rounded=0;orthogonalLoop=1;jettySize=auto;html=1;dashed=1;dashPattern=12 12;" parent="1" source="0B0eagUAXpEbYrLWP_e4-28" target="0B0eagUAXpEbYrLWP_e4-31" edge="1">
          <mxGeometry relative="1" as="geometry" />
        </mxCell>
        <mxCell id="0B0eagUAXpEbYrLWP_e4-27" value="&amp;lt;&amp;lt;include&amp;gt;&amp;gt;" style="edgeLabel;html=1;align=center;verticalAlign=middle;resizable=0;points=[];" parent="0B0eagUAXpEbYrLWP_e4-26" vertex="1" connectable="0">
          <mxGeometry x="0.3667" relative="1" as="geometry">
            <mxPoint x="-22" as="offset" />
          </mxGeometry>
        </mxCell>
        <mxCell id="0B0eagUAXpEbYrLWP_e4-28" value="tours" style="ellipse;whiteSpace=wrap;html=1;" parent="1" vertex="1">
          <mxGeometry x="670" y="140" width="70" height="40" as="geometry" />
        </mxCell>
        <mxCell id="0B0eagUAXpEbYrLWP_e4-29" value="" style="edgeStyle=orthogonalEdgeStyle;rounded=0;orthogonalLoop=1;jettySize=auto;html=1;endArrow=none;endFill=0;startArrow=classic;startFill=1;dashed=1;dashPattern=12 12;entryX=0.5;entryY=1;entryDx=0;entryDy=0;exitX=0.5;exitY=0;exitDx=0;exitDy=0;" parent="1" source="0B0eagUAXpEbYrLWP_e4-18" target="0B0eagUAXpEbYrLWP_e4-28" edge="1">
          <mxGeometry relative="1" as="geometry">
            <mxPoint x="590" y="240" as="sourcePoint" />
            <mxPoint x="675" y="200" as="targetPoint" />
            <Array as="points">
              <mxPoint x="515" y="200" />
              <mxPoint x="705" y="200" />
            </Array>
          </mxGeometry>
        </mxCell>
        <mxCell id="0B0eagUAXpEbYrLWP_e4-30" value="&amp;lt;&amp;lt;extend&amp;gt;&amp;gt;" style="edgeLabel;html=1;align=center;verticalAlign=middle;resizable=0;points=[];" parent="0B0eagUAXpEbYrLWP_e4-29" vertex="1" connectable="0">
          <mxGeometry x="0.151" y="-3" relative="1" as="geometry">
            <mxPoint x="-23" y="-3" as="offset" />
          </mxGeometry>
        </mxCell>
        <mxCell id="0B0eagUAXpEbYrLWP_e4-31" value="guides" style="ellipse;whiteSpace=wrap;html=1;" parent="1" vertex="1">
          <mxGeometry x="860" y="140" width="70" height="40" as="geometry" />
        </mxCell>
        <mxCell id="0B0eagUAXpEbYrLWP_e4-32" value="make reservation&amp;nbsp;" style="ellipse;whiteSpace=wrap;html=1;" parent="1" vertex="1">
          <mxGeometry x="355" y="610" width="80" height="40" as="geometry" />
        </mxCell>
        <mxCell id="0B0eagUAXpEbYrLWP_e4-33" style="rounded=0;orthogonalLoop=1;jettySize=auto;html=1;entryX=0;entryY=0.5;entryDx=0;entryDy=0;endArrow=none;endFill=0;" parent="1" source="0B0eagUAXpEbYrLWP_e4-1" target="0B0eagUAXpEbYrLWP_e4-32" edge="1">
          <mxGeometry relative="1" as="geometry" />
        </mxCell>
        <mxCell id="0B0eagUAXpEbYrLWP_e4-34" value="make payment" style="ellipse;whiteSpace=wrap;html=1;" parent="1" vertex="1">
          <mxGeometry x="355" y="790" width="80" height="40" as="geometry" />
        </mxCell>
        <mxCell id="0B0eagUAXpEbYrLWP_e4-35" style="rounded=0;orthogonalLoop=1;jettySize=auto;html=1;entryX=0;entryY=0.5;entryDx=0;entryDy=0;endArrow=none;endFill=0;exitX=0.5;exitY=0.5;exitDx=0;exitDy=0;exitPerimeter=0;" parent="1" source="0B0eagUAXpEbYrLWP_e4-1" target="0B0eagUAXpEbYrLWP_e4-34" edge="1">
          <mxGeometry relative="1" as="geometry">
            <mxPoint x="209.3499999999999" y="309.9999999999999" as="sourcePoint" />
          </mxGeometry>
        </mxCell>
        <mxCell id="0B0eagUAXpEbYrLWP_e4-36" value="login" style="ellipse;whiteSpace=wrap;html=1;" parent="1" vertex="1">
          <mxGeometry x="345" y="155" width="80" height="40" as="geometry" />
        </mxCell>
        <mxCell id="0B0eagUAXpEbYrLWP_e4-37" style="rounded=0;orthogonalLoop=1;jettySize=auto;html=1;entryX=0;entryY=0.5;entryDx=0;entryDy=0;endArrow=none;endFill=0;" parent="1" source="0B0eagUAXpEbYrLWP_e4-1" target="0B0eagUAXpEbYrLWP_e4-36" edge="1">
          <mxGeometry relative="1" as="geometry">
            <mxPoint x="240" y="290" as="sourcePoint" />
          </mxGeometry>
        </mxCell>
        <mxCell id="0B0eagUAXpEbYrLWP_e4-38" style="edgeStyle=orthogonalEdgeStyle;rounded=0;orthogonalLoop=1;jettySize=auto;html=1;" parent="1" source="0B0eagUAXpEbYrLWP_e4-39" target="0B0eagUAXpEbYrLWP_e4-34" edge="1">
          <mxGeometry relative="1" as="geometry">
            <Array as="points">
              <mxPoint x="482.5" y="770" />
              <mxPoint x="482.5" y="810" />
            </Array>
          </mxGeometry>
        </mxCell>
        <mxCell id="0B0eagUAXpEbYrLWP_e4-39" value="credit card" style="ellipse;whiteSpace=wrap;html=1;" parent="1" vertex="1">
          <mxGeometry x="527.5" y="750" width="70" height="40" as="geometry" />
        </mxCell>
        <mxCell id="0B0eagUAXpEbYrLWP_e4-40" style="edgeStyle=orthogonalEdgeStyle;rounded=0;orthogonalLoop=1;jettySize=auto;html=1;entryX=1;entryY=0.5;entryDx=0;entryDy=0;" parent="1" source="0B0eagUAXpEbYrLWP_e4-41" target="0B0eagUAXpEbYrLWP_e4-34" edge="1">
          <mxGeometry relative="1" as="geometry">
            <mxPoint x="442.5" y="800" as="targetPoint" />
            <Array as="points">
              <mxPoint x="481.5" y="850" />
              <mxPoint x="481.5" y="810" />
            </Array>
          </mxGeometry>
        </mxCell>
        <mxCell id="0B0eagUAXpEbYrLWP_e4-41" value="points wallet" style="ellipse;whiteSpace=wrap;html=1;" parent="1" vertex="1">
          <mxGeometry x="527.5" y="830" width="70" height="40" as="geometry" />
        </mxCell>
        <mxCell id="0B0eagUAXpEbYrLWP_e4-42" value="add profile" style="ellipse;whiteSpace=wrap;html=1;" parent="1" vertex="1">
          <mxGeometry x="357.5" y="930" width="75" height="40" as="geometry" />
        </mxCell>
        <mxCell id="0B0eagUAXpEbYrLWP_e4-43" style="rounded=0;orthogonalLoop=1;jettySize=auto;html=1;entryX=0;entryY=0.5;entryDx=0;entryDy=0;endArrow=none;endFill=0;" parent="1" source="0B0eagUAXpEbYrLWP_e4-1" target="0B0eagUAXpEbYrLWP_e4-42" edge="1">
          <mxGeometry relative="1" as="geometry" />
        </mxCell>
        <mxCell id="0B0eagUAXpEbYrLWP_e4-44" value="favorite services" style="ellipse;whiteSpace=wrap;html=1;" parent="1" vertex="1">
          <mxGeometry x="352.5" y="470" width="80" height="45" as="geometry" />
        </mxCell>
        <mxCell id="0B0eagUAXpEbYrLWP_e4-45" value="" style="edgeStyle=orthogonalEdgeStyle;rounded=0;orthogonalLoop=1;jettySize=auto;html=1;endArrow=none;endFill=0;startArrow=classic;startFill=1;dashed=1;dashPattern=12 12;" parent="1" source="0B0eagUAXpEbYrLWP_e4-47" target="0B0eagUAXpEbYrLWP_e4-54" edge="1">
          <mxGeometry relative="1" as="geometry" />
        </mxCell>
        <mxCell id="0B0eagUAXpEbYrLWP_e4-46" value="&amp;lt;&amp;lt;extend&amp;gt;&amp;gt;" style="edgeLabel;html=1;align=center;verticalAlign=middle;resizable=0;points=[];" parent="0B0eagUAXpEbYrLWP_e4-45" vertex="1" connectable="0">
          <mxGeometry x="0.1175" y="-2" relative="1" as="geometry">
            <mxPoint as="offset" />
          </mxGeometry>
        </mxCell>
        <mxCell id="0B0eagUAXpEbYrLWP_e4-47" value="review services" style="ellipse;whiteSpace=wrap;html=1;" parent="1" vertex="1">
          <mxGeometry x="352.5" y="540" width="80" height="45" as="geometry" />
        </mxCell>
        <mxCell id="0B0eagUAXpEbYrLWP_e4-48" style="rounded=0;orthogonalLoop=1;jettySize=auto;html=1;entryX=0.5;entryY=0.5;entryDx=0;entryDy=0;entryPerimeter=0;endArrow=none;endFill=0;" parent="1" source="0B0eagUAXpEbYrLWP_e4-44" target="0B0eagUAXpEbYrLWP_e4-1" edge="1">
          <mxGeometry relative="1" as="geometry" />
        </mxCell>
        <mxCell id="0B0eagUAXpEbYrLWP_e4-49" style="rounded=0;orthogonalLoop=1;jettySize=auto;html=1;entryX=0.5;entryY=0.5;entryDx=0;entryDy=0;entryPerimeter=0;endArrow=none;endFill=0;" parent="1" source="0B0eagUAXpEbYrLWP_e4-47" target="0B0eagUAXpEbYrLWP_e4-1" edge="1">
          <mxGeometry relative="1" as="geometry" />
        </mxCell>
        <mxCell id="0B0eagUAXpEbYrLWP_e4-50" value="" style="rounded=0;orthogonalLoop=1;jettySize=auto;html=1;entryX=1;entryY=0.5;entryDx=0;entryDy=0;endArrow=none;endFill=0;" parent="1" source="0B0eagUAXpEbYrLWP_e4-9" target="0B0eagUAXpEbYrLWP_e4-51" edge="1">
          <mxGeometry relative="1" as="geometry">
            <mxPoint x="1030" y="303" as="sourcePoint" />
            <mxPoint x="550" y="390" as="targetPoint" />
          </mxGeometry>
        </mxCell>
        <mxCell id="0B0eagUAXpEbYrLWP_e4-51" value="CRUD" style="ellipse;whiteSpace=wrap;html=1;" parent="1" vertex="1">
          <mxGeometry x="850" y="290" width="90" height="50" as="geometry" />
        </mxCell>
        <mxCell id="0B0eagUAXpEbYrLWP_e4-52" value="browse own&lt;div&gt;reservations&lt;/div&gt;" style="ellipse;whiteSpace=wrap;html=1;" parent="1" vertex="1">
          <mxGeometry x="357.5" y="690" width="75" height="40" as="geometry" />
        </mxCell>
        <mxCell id="0B0eagUAXpEbYrLWP_e4-53" style="rounded=0;orthogonalLoop=1;jettySize=auto;html=1;entryX=0;entryY=0.5;entryDx=0;entryDy=0;endArrow=none;endFill=0;exitX=0.5;exitY=0.5;exitDx=0;exitDy=0;exitPerimeter=0;" parent="1" source="0B0eagUAXpEbYrLWP_e4-1" target="0B0eagUAXpEbYrLWP_e4-52" edge="1">
          <mxGeometry relative="1" as="geometry">
            <mxPoint x="212" y="110" as="sourcePoint" />
          </mxGeometry>
        </mxCell>
        <mxCell id="0B0eagUAXpEbYrLWP_e4-54" value="browse reviews" style="ellipse;whiteSpace=wrap;html=1;" parent="1" vertex="1">
          <mxGeometry x="550" y="540" width="80" height="45" as="geometry" />
        </mxCell>
        <mxCell id="0B0eagUAXpEbYrLWP_e4-55" value="view statistics" style="ellipse;whiteSpace=wrap;html=1;" parent="1" vertex="1">
          <mxGeometry x="850" y="430" width="92.5" height="50" as="geometry" />
        </mxCell>
        <mxCell id="7iT_NpZirMBeT9E2yEck-1" value="" style="edgeStyle=orthogonalEdgeStyle;rounded=0;orthogonalLoop=1;jettySize=auto;html=1;endArrow=none;endFill=0;startArrow=classic;startFill=1;dashed=1;dashPattern=12 12;exitX=1;exitY=0.5;exitDx=0;exitDy=0;" edge="1" parent="1" target="7iT_NpZirMBeT9E2yEck-3" source="0B0eagUAXpEbYrLWP_e4-42">
          <mxGeometry relative="1" as="geometry">
            <mxPoint x="494" y="890" as="sourcePoint" />
          </mxGeometry>
        </mxCell>
        <mxCell id="7iT_NpZirMBeT9E2yEck-2" value="&amp;lt;&amp;lt;extend&amp;gt;&amp;gt;" style="edgeLabel;html=1;align=center;verticalAlign=middle;resizable=0;points=[];" vertex="1" connectable="0" parent="7iT_NpZirMBeT9E2yEck-1">
          <mxGeometry x="0.1175" y="-2" relative="1" as="geometry">
            <mxPoint as="offset" />
          </mxGeometry>
        </mxCell>
        <mxCell id="7iT_NpZirMBeT9E2yEck-3" value="manage profile" style="ellipse;whiteSpace=wrap;html=1;" vertex="1" parent="1">
          <mxGeometry x="527.5" y="925" width="80" height="45" as="geometry" />
        </mxCell>
      </root>
    </mxGraphModel>
  </diagram>
</mxfile>
